<svg xmlns="http://www.w3.org/2000/svg" viewBox="0 0 16 16"><path fill="#EA7130" d="M11.815 11.794a1.684 1.684 0 0 1 .15-.742 2.293 2.293 0 0 0 .155-.538 8.437 8.437 0 0 1 .464-1.783 1.946 1.946 0 0 0 .354-1.246.871.871 0 0 1-.027-.343.535.535 0 0 0-.017-.242.158.158 0 0 1 0-.174c.04-.052.013-.109-.137-.282a1.166 1.166 0 0 1-.173-.225 1.484 1.484 0 0 1 .173-.078l.155-.07.044-.594c.031-.322.044-.587.044-.587s-.2.056-.437.13-.455.13-.486.13a1.047 1.047 0 0 1-.309-.633 1.191 1.191 0 0 1-.124-.651 4.5 4.5 0 0 0-.212-1.375 4.161 4.161 0 0 0-.739-1.443.222.222 0 0 0-.322.043c-.058.109-.053.122.155.594l.158.365-.274-.212a4.014 4.014 0 0 0-1.542-.825c-.213-.026-.221-.022-.268.109a.262.262 0 0 1-.133.152c-.058.017-.08.065-.08.186a.851.851 0 0 0 .455.59 2.989 2.989 0 0 1 .415.425 2.62 2.62 0 0 1-.376-.225.941.941 0 0 0-.535-.23c-.371 0-.362.252.018.517a5.517 5.517 0 0 1 .584.517l.344.346-.309.052a1.167 1.167 0 0 0-.729.243c-.093.169-.035.217.477.382a2.968 2.968 0 0 1 .6.252 1.8 1.8 0 0 0 .642.367.455.455 0 0 1 .283.174.35.35 0 0 0 .151.148.412.412 0 0 1 .177.286.722.722 0 0 1 .049.269 4.292 4.292 0 0 1-.4.135l-.38.117.323.564c.3.525.327.564.442.551.146-.013.146-.013.022.191l-.1.161.1.182a.422.422 0 0 1 .071.282c-.027.083-.044.07-.133-.117a3.079 3.079 0 0 0-.619-.8 1.135 1.135 0 0 0-.888-.317L8.67 6.51l-.207-.2A2.113 2.113 0 0 0 8 5.994a1.361 1.361 0 0 0-.809-.126h-.549l-.42.217a3.879 3.879 0 0 0-1.445 1.388 1.7 1.7 0 0 1-.234.343c0-.022-.022-.122-.04-.221-.035-.178-.035-.182.1-.2s.137-.026.23-.4c.053-.217.111-.434.128-.482.027-.087 0-.1-.371-.191a.5.5 0 0 1-.4-.169 1.764 1.764 0 0 1 .19-.607.387.387 0 0 0 .084-.156.452.452 0 0 1 .216-.2 1.27 1.27 0 0 0 .649-.8 3.386 3.386 0 0 1 .614-.9 3 3 0 0 0 .323-.373.47.47 0 0 0-.248-.267l1.737-1.208-.194-.226S5.082 3.11 5.068 3.11a1.177 1.177 0 0 1-.119-.286l-.093-.282.3-.282c.323-.3.393-.417.309-.517-.035-.043-.114-.026-.45.135a7.168 7.168 0 0 1-.773.308c-.34.1-.371.1-.446.039-.187-.165-.306-.065-.766.634a1.115 1.115 0 0 1-.2.252 1.667 1.667 0 0 1-.25-.383 4.65 4.65 0 0 0-.3-.477c-.119-.126-.234-.122-.269.009a7.181 7.181 0 0 0 .473 1.927c.1.3.106.317.031.356s-.08.057-.036.173c.035.1.071.122.128.1s.106.03.207.256a.527.527 0 0 1 .057.534c-.039.147-.071.264-.071.269a1.628 1.628 0 0 1-.243-.052c-.4-.1-.376-.135-.433.508-.031.317-.053.607-.053.646s.058.083.2.1l.2.026-.031.26a.372.372 0 0 0 .04.338 8.535 8.535 0 0 1 .111 2.248v.612l.168.052a.363.363 0 0 1 .318.277.376.376 0 0 0 .19.221c.1.07.491.347.857.616a4.052 4.052 0 0 1 .618.485c.874.6 2.741 1.659 2.741 1.659l-.075.161a3.67 3.67 0 0 0-.28.968l1.917-1.165Z"></path></svg>
